<svg width="137" height="34" viewBox="0 0 137 34" fill="none" xmlns="http://www.w3.org/2000/svg">
<path d="M23.9445 17C21.4495 19.813 17.8238 21.5833 13.7883 21.5833C9.7528 21.5833 6.12705 19.813 3.63208 17C6.12705 14.1869 9.7528 12.4166 13.7883 12.4166C17.8238 12.4166 21.4495 14.1869 23.9445 17Z" fill="white"/>
<path fill-rule="evenodd" clip-rule="evenodd" d="M0.162476 26.1666C0.162476 18.5727 6.26293 12.4166 13.7882 12.4166C9.75273 12.4166 6.12701 14.1869 3.63204 17C6.12701 19.813 9.75276 21.5833 13.7882 21.5833C17.8237 21.5833 21.4495 19.813 23.9444 17C26.102 19.4326 27.414 22.645 27.414 26.1666V31.3611C27.414 32.0361 26.8717 32.5833 26.2028 32.5833H1.37365C0.704738 32.5833 0.162476 32.0361 0.162476 31.3611V26.1666ZM23.9444 17C23.9444 17 23.9444 17 23.9444 17Z" fill="#7CD4FD"/>
<path fill-rule="evenodd" clip-rule="evenodd" d="M8.67737 20.5833C6.73179 19.7884 5.00957 18.5531 3.63204 17C6.12701 14.1869 9.75276 12.4166 13.7882 12.4166C17.8237 12.4166 21.4495 14.1869 23.9444 16.9999C23.9444 16.9999 23.9444 16.9999 23.9444 16.9999C26.102 14.5673 27.414 11.3549 27.414 7.83329V2.63885C27.414 1.96384 26.8717 1.41663 26.2028 1.41663L1.37365 1.41663C0.704739 1.41663 0.162476 1.96383 0.162476 2.63885L0.162476 7.83329C0.162475 13.6033 3.68445 18.5432 8.67737 20.5833Z" fill="#0BA5EC"/>
<path d="M48.6969 10.2396V24.0833H45.9453V18.1928H40.0687V24.0833H37.3171V10.2396H40.0687V15.9318H45.9453V10.2396H48.6969Z" fill="#101828"/>
<path d="M56.2401 24.2618C55.1918 24.2618 54.2484 24.0304 53.4099 23.5676C52.5713 23.0916 51.9096 22.4239 51.4248 21.5645C50.9531 20.705 50.7172 19.7133 50.7172 18.5894C50.7172 17.4656 50.9596 16.4739 51.4444 15.6144C51.9424 14.755 52.6171 14.0939 53.4688 13.6311C54.3205 13.1551 55.2704 12.9171 56.3187 12.9171C57.3669 12.9171 58.3168 13.1551 59.1685 13.6311C60.0202 14.0939 60.6884 14.755 61.1732 15.6144C61.6711 16.4739 61.9201 17.4656 61.9201 18.5894C61.9201 19.7133 61.6646 20.705 61.1536 21.5645C60.6557 22.4239 59.9743 23.0916 59.1096 23.5676C58.2579 24.0304 57.3014 24.2618 56.2401 24.2618ZM56.2401 21.8421C56.738 21.8421 57.2031 21.7231 57.6355 21.4851C58.081 21.2339 58.4348 20.8637 58.6968 20.3744C58.9589 19.8852 59.0899 19.2902 59.0899 18.5894C59.0899 17.5449 58.8147 16.7449 58.2644 16.1896C57.7272 15.6211 57.0655 15.3368 56.2794 15.3368C55.4932 15.3368 54.8315 15.6211 54.2943 16.1896C53.7702 16.7449 53.5081 17.5449 53.5081 18.5894C53.5081 19.634 53.7636 20.4406 54.2746 21.0091C54.7988 21.5644 55.4539 21.8421 56.2401 21.8421Z" fill="#101828"/>
<path d="M74.2176 13.0956V24.0833H71.4463V22.695C71.0926 23.171 70.6274 23.5478 70.0509 23.8254C69.4875 24.0899 68.8717 24.2221 68.2034 24.2221C67.3517 24.2221 66.5983 24.0436 65.9432 23.6866C65.2881 23.3164 64.7705 22.7809 64.3905 22.0801C64.0236 21.3661 63.8402 20.5199 63.8402 19.5414V13.0956H66.5918V19.1448C66.5918 20.0174 66.808 20.6918 67.2404 21.1678C67.6728 21.6306 68.2624 21.8619 69.0092 21.8619C69.7692 21.8619 70.3654 21.6306 70.7978 21.1678C71.2301 20.6918 71.4463 20.0174 71.4463 19.1448V13.0956H74.2176Z" fill="#101828"/>
<path d="M79.684 14.8013C80.0378 14.2195 80.4964 13.7633 81.0598 13.4328C81.6363 13.1022 82.2915 12.9369 83.0252 12.9369V15.8524H82.298C81.4332 15.8524 80.7781 16.0574 80.3326 16.4673C79.9002 16.8772 79.684 17.5912 79.684 18.6093V24.0833H76.9324V13.0956H79.684V14.8013Z" fill="#101828"/>
<path d="M89.1435 12.9171C89.9559 12.9171 90.6699 13.0824 91.2858 13.4129C91.9016 13.7303 92.3864 14.1468 92.7402 14.6624V13.0956H95.5114V24.1626C95.5114 25.1807 95.3083 26.0864 94.9021 26.8798C94.4959 27.6863 93.8867 28.321 93.0743 28.7838C92.2619 29.2598 91.2792 29.4978 90.1262 29.4978C88.5801 29.4978 87.3091 29.1342 86.3133 28.4069C85.3306 27.6797 84.7737 26.6881 84.6427 25.4319H87.3746C87.5187 25.9344 87.8267 26.3311 88.2984 26.6219C88.7832 26.9261 89.3662 27.0781 90.0476 27.0781C90.8468 27.0781 91.4954 26.8335 91.9933 26.3443C92.4912 25.8683 92.7402 25.1411 92.7402 24.1626V22.4569C92.3864 22.9726 91.8951 23.4023 91.2661 23.7461C90.6503 24.0899 89.9428 24.2618 89.1435 24.2618C88.2263 24.2618 87.3877 24.0238 86.6278 23.5478C85.8678 23.0718 85.2651 22.4041 84.8196 21.5446C84.3872 20.672 84.171 19.6737 84.171 18.5498C84.171 17.4391 84.3872 16.4541 84.8196 15.5946C85.2651 14.7352 85.8612 14.0741 86.6081 13.6113C87.3681 13.1485 88.2132 12.9171 89.1435 12.9171ZM92.7402 18.5894C92.7402 17.9151 92.6092 17.3399 92.3471 16.8639C92.085 16.3747 91.7313 16.0045 91.2858 15.7533C90.8403 15.4888 90.362 15.3566 89.851 15.3566C89.34 15.3566 88.8683 15.4822 88.4359 15.7334C88.0035 15.9847 87.6498 16.3549 87.3746 16.8441C87.1126 17.3201 86.9815 17.8887 86.9815 18.5498C86.9815 19.2109 87.1126 19.7927 87.3746 20.2951C87.6498 20.7843 88.0035 21.1612 88.4359 21.4256C88.8814 21.6901 89.3531 21.8223 89.851 21.8223C90.362 21.8223 90.8403 21.6967 91.2858 21.4454C91.7313 21.181 92.085 20.8108 92.3471 20.3348C92.6092 19.8456 92.7402 19.2638 92.7402 18.5894Z" fill="#101828"/>
<path d="M100.95 9.40662V24.0833H98.1988V9.40662H100.95Z" fill="#101828"/>
<path d="M102.961 18.5498C102.961 17.4391 103.178 16.4541 103.61 15.5946C104.055 14.7352 104.652 14.0741 105.399 13.6113C106.158 13.1485 107.004 12.9171 107.934 12.9171C108.746 12.9171 109.454 13.0824 110.057 13.4129C110.672 13.7435 111.164 14.16 111.531 14.6624V13.0956H114.302V24.0833H111.531V22.4768C111.177 22.9924 110.685 23.4222 110.057 23.7659C109.441 24.0965 108.727 24.2618 107.914 24.2618C106.997 24.2618 106.158 24.0238 105.399 23.5478C104.652 23.0718 104.055 22.4041 103.61 21.5446C103.178 20.672 102.961 19.6737 102.961 18.5498ZM111.531 18.5894C111.531 17.9151 111.4 17.3399 111.138 16.8639C110.875 16.3747 110.522 16.0045 110.076 15.7533C109.631 15.4888 109.152 15.3566 108.641 15.3566C108.13 15.3566 107.659 15.4822 107.226 15.7334C106.794 15.9847 106.44 16.3549 106.165 16.8441C105.903 17.3201 105.772 17.8887 105.772 18.5498C105.772 19.2109 105.903 19.7927 106.165 20.2951C106.44 20.7843 106.794 21.1612 107.226 21.4256C107.672 21.6901 108.144 21.8223 108.641 21.8223C109.152 21.8223 109.631 21.6967 110.076 21.4454C110.522 21.181 110.875 20.8108 111.138 20.3348C111.4 19.8456 111.531 19.2638 111.531 18.5894Z" fill="#101828"/>
<path d="M121.156 24.2618C120.265 24.2618 119.466 24.1031 118.758 23.7858C118.051 23.4552 117.487 23.0123 117.068 22.4569C116.662 21.9016 116.439 21.2868 116.4 20.6124H119.171C119.223 21.0356 119.426 21.3859 119.78 21.6636C120.147 21.9413 120.599 22.0801 121.136 22.0801C121.66 22.0801 122.067 21.9743 122.355 21.7628C122.656 21.5512 122.807 21.2802 122.807 20.9496C122.807 20.5926 122.623 20.3282 122.257 20.1563C121.903 19.9712 121.333 19.7728 120.547 19.5613C119.734 19.3629 119.066 19.158 118.542 18.9464C118.031 18.7349 117.585 18.4109 117.205 17.9746C116.839 17.5383 116.655 16.9499 116.655 16.2094C116.655 15.6012 116.825 15.0459 117.166 14.5434C117.52 14.041 118.018 13.6443 118.66 13.3534C119.315 13.0626 120.081 12.9171 120.959 12.9171C122.257 12.9171 123.292 13.2477 124.065 13.9088C124.838 14.5567 125.264 15.4359 125.342 16.5466H122.709C122.669 16.1103 122.486 15.7665 122.158 15.5153C121.844 15.2508 121.418 15.1186 120.881 15.1186C120.383 15.1186 119.996 15.2112 119.721 15.3963C119.459 15.5814 119.328 15.8392 119.328 16.1698C119.328 16.54 119.511 16.8243 119.878 17.0226C120.245 17.2077 120.815 17.3994 121.588 17.5978C122.374 17.7961 123.023 18.0011 123.534 18.2126C124.045 18.4242 124.484 18.7547 124.851 19.2043C125.231 19.6406 125.427 20.2224 125.44 20.9496C125.44 21.5843 125.264 22.1528 124.91 22.6553C124.569 23.1577 124.071 23.5544 123.416 23.8453C122.774 24.1229 122.021 24.2618 121.156 24.2618Z" fill="#101828"/>
<path d="M131.866 24.2618C130.975 24.2618 130.176 24.1031 129.468 23.7858C128.76 23.4552 128.197 23.0123 127.778 22.4569C127.372 21.9016 127.149 21.2868 127.11 20.6124H129.881C129.933 21.0356 130.136 21.3859 130.49 21.6636C130.857 21.9413 131.309 22.0801 131.846 22.0801C132.37 22.0801 132.776 21.9743 133.065 21.7628C133.366 21.5512 133.517 21.2802 133.517 20.9496C133.517 20.5926 133.333 20.3282 132.966 20.1563C132.613 19.9712 132.043 19.7728 131.257 19.5613C130.444 19.3629 129.776 19.158 129.252 18.9464C128.741 18.7349 128.295 18.4109 127.915 17.9746C127.548 17.5383 127.365 16.9499 127.365 16.2094C127.365 15.6012 127.535 15.0459 127.876 14.5434C128.23 14.041 128.728 13.6443 129.37 13.3534C130.025 13.0626 130.791 12.9171 131.669 12.9171C132.966 12.9171 134.002 13.2477 134.775 13.9088C135.548 14.5567 135.974 15.4359 136.052 16.5466H133.418C133.379 16.1103 133.196 15.7665 132.868 15.5153C132.554 15.2508 132.128 15.1186 131.591 15.1186C131.093 15.1186 130.706 15.2112 130.431 15.3963C130.169 15.5814 130.038 15.8392 130.038 16.1698C130.038 16.54 130.221 16.8243 130.588 17.0226C130.955 17.2077 131.525 17.3994 132.298 17.5978C133.084 17.7961 133.733 18.0011 134.244 18.2126C134.755 18.4242 135.194 18.7547 135.561 19.2043C135.941 19.6406 136.137 20.2224 136.15 20.9496C136.15 21.5843 135.974 22.1528 135.62 22.6553C135.279 23.1577 134.781 23.5544 134.126 23.8453C133.484 24.1229 132.731 24.2618 131.866 24.2618Z" fill="#101828"/>
</svg>
